Coordinates
version=1
nRows=11
nColumns=63
inDegrees=yes

Units are S.I. units (second, meters, Newtons, ...)
If the header above contains a line with 'inDegrees', this indicates whether rotational values are in degrees (yes) or radians (no).

endheader
time	pelvis_tilt	pelvis_list	pelvis_rotation	pelvis_tx	pelvis_ty	pelvis_tz	hip_flexion_r	hip_adduction_r	hip_rotation_r	knee_angle_r	knee_angle_r_beta	ankle_angle_r	subtalar_angle_r	mtp_angle_r	hip_flexion_l	hip_adduction_l	hip_rotation_l	knee_angle_l	knee_angle_l_beta	ankle_angle_l	subtalar_angle_l	mtp_angle_l	L5_S1_Flex_Ext	L5_S1_Lat_Bending	L5_S1_axial_rotation	L4_L5_Flex_Ext	L4_L5_Lat_Bending	L4_L5_axial_rotation	L3_L4_Flex_Ext	L3_L4_Lat_Bending	L3_L4_axial_rotation	L2_L3_Flex_Ext	L2_L3_Lat_Bending	L2_L3_axial_rotation	L1_L2_Flex_Ext	L1_L2_Lat_Bending	L1_L2_axial_rotation	L1_T12_Flex_Ext	L1_T12_Lat_Bending	L1_T12_axial_rotation	Abs_r3	Abs_r2	Abs_r1	Abs_t1	Abs_t2	neck_flexion	neck_bending	neck_rotation	arm_flex_r	arm_add_r	arm_rot_r	elbow_flex_r	pro_sup_r	wrist_flex_r	wrist_dev_r	arm_flex_l	arm_add_l	arm_rot_l	elbow_flex_l	pro_sup_l	wrist_flex_l	wrist_dev_l
     14.40000000	      3.55134486	      4.82008710	   -179.70904549	      0.18133588	      0.89305816	      0.80475707	     14.09435582	      4.90506080	    -13.67892330	     21.44006210	      0.37419968	     18.49976155	      3.31345588	      0.00000000	     25.20513675	     -9.27766976	     -1.41149653	     78.44940337	      1.36920039	     12.72670181	    -19.35234687	      0.00000000	     -0.00895153	      0.61810201	      0.06028297	     -0.01662388	      0.82207567	      0.06405065	     -0.01470646	      1.50285323	      0.06405065	     -0.01023070	      1.50285323	      0.05274760	     -0.00831239	      1.26043362	      0.04897991	     -0.00511490	      0.95744001	      0.04521223	     -0.06393986	      6.99209356	      0.33527579	      0.00000000	      0.00000000	      0.00000000	      0.00000000	     -0.00000000	     -4.28521433	    -16.15334533	     24.62070884	     26.31981743	     50.37873966	      0.00000000	      5.00000014	     -4.18975238	    -11.06322723	      9.05293083	     24.78477678	     50.38747083	      0.00000000	      5.00000014
     14.43333333	      3.72366663	      3.94143224	   -180.89893993	      0.14768039	      0.89524133	      0.80522608	     11.29623283	      3.63454857	    -15.97865102	     20.87003005	      0.36425074	     20.86331946	      9.17420061	      0.00000000	     29.65263107	     -8.32238296	     -2.64463448	     76.17010019	      1.32941904	     19.11123647	    -18.52141286	      0.00000000	     -0.00607757	      0.54260124	      0.40416819	     -0.01128665	      0.72165965	      0.42942870	     -0.00998484	      1.31928065	      0.42942870	     -0.00694605	      1.31928065	      0.35364717	     -0.00564363	      1.10647244	      0.32838666	     -0.00347272	      0.84048932	      0.30312614	     -0.04341146	      6.13801371	      2.24786223	      0.00000000	      0.00000000	      0.00000000	      0.00000000	     -0.00000000	     -2.20887911	    -16.22068121	     19.96447121	     28.19596382	     49.17016691	      0.00000000	      5.00000014	     -4.99755813	    -12.42443241	     16.13039501	     23.60378850	     51.72075825	      0.00000000	      5.00000014
     14.46666667	      4.10578757	      3.40198251	   -181.56547509	      0.11574537	      0.89624160	      0.80579716	      8.81902762	      3.05818627	    -16.47866152	     19.86494085	      0.34670862	     22.35599754	     11.34844968	      0.00000000	     33.79140345	     -7.88047454	     -3.18209344	     70.85843910	      1.23671307	     25.25276581	    -13.88422594	      0.00000000	     -0.00509856	      0.49186073	      0.61670438	     -0.00946853	      0.65417477	      0.65524841	     -0.00837642	      1.19591017	      0.65524841	     -0.00582714	      1.19591017	      0.53961634	     -0.00473452	      1.00300239	      0.50107231	     -0.00291332	      0.76189227	      0.46252829	     -0.03641848	      5.56402691	      3.42992477	      0.00000000	      0.00000000	      0.00000000	      0.00000000	     -0.00000000	      0.30972882	    -16.66153760	     17.56756564	     29.47788796	     48.35696072	      0.00000000	      5.00000014	     -5.85302834	    -13.97987012	     23.28909073	     23.07467505	     52.79308496	      0.00000000	      5.00000014
     14.50000000	      4.66824108	      3.08482889	   -182.26462122	      0.08499108	      0.89603574	      0.80597167	      6.86894815	      2.82329931	    -16.05984740	     19.17099015	      0.33459690	     23.78462884	     11.94779896	      0.00000000	     37.07795083	     -8.28773008	     -4.11570716	     62.91823737	      1.09813040	     27.82181358	     -7.63053348	      0.00000000	     -0.00600572	      0.45252011	      0.81827547	     -0.01115322	      0.60185175	      0.86941768	     -0.00986680	      1.10025741	      0.86941768	     -0.00686394	      1.10025741	      0.71599103	     -0.00557691	      0.92277902	      0.66484882	     -0.00343167	      0.70095366	      0.61370660	     -0.04289826	      5.11899803	      4.55100266	      0.00000000	      0.00000000	      0.00000000	      0.00000000	     -0.00000000	      2.76105916	    -17.27727786	     16.05696882	     30.67785861	     47.62570297	      0.00000000	      5.00000014	     -6.63776506	    -15.32552011	     29.31140982	     22.74818264	     53.30293710	      0.00000000	      5.00000014
     14.53333333	      5.29219466	      2.88864374	   -182.81136371	      0.05432770	      0.89464900	      0.80651489	      5.09290386	      2.71758651	    -15.31375799	     18.53486046	      0.32349434	     25.14330878	     11.68485922	      0.00000000	     39.06097341	     -8.66828926	     -5.18550550	     52.97945324	      0.92466589	     25.85945890	     -4.16388327	      0.00000000	     -0.00600653	      0.41785508	      0.98693492	     -0.01115472	      0.55574726	      1.04861835	     -0.00986813	      1.01597285	      1.04861835	     -0.00686486	      1.01597285	      0.86356805	     -0.00557766	      0.85209009	      0.80188462	     -0.00343213	      0.64725752	      0.74020119	     -0.04290403	      4.72686028	      5.48903592	      0.00000000	      0.00000000	      0.00000000	      0.00000000	     -0.00000000	      4.95941482	    -17.92898020	     15.01966351	     31.94221765	     46.85809261	      0.00000000	      5.00000014	     -7.45009701	    -16.31177845	     33.71358033	     22.60937394	     53.12694341	      0.00000000	      5.00000014
     14.56666667	      5.81862670	      2.84425487	   -183.19013869	      0.02256367	      0.89208649	      0.80795448	      3.16856858	      2.65212385	    -14.85418900	     17.90286079	      0.31246387	     26.46814232	     11.53210496	      0.00000000	     39.47443303	     -8.74895034	     -6.22361634	     41.95648928	      0.73227888	     21.35534621	     -3.26437864	      0.00000000	     -0.00594711	      0.39804096	      1.11494605	     -0.01104437	      0.52939448	      1.18463018	     -0.00977050	      0.96779680	      1.18463018	     -0.00679695	      0.96779680	      0.97557780	     -0.00552248	      0.81168513	      0.90589367	     -0.00339818	      0.61656545	      0.83620954	     -0.04247958	      4.50271897	      6.20099547	      0.00000000	      0.00000000	      0.00000000	      0.00000000	     -0.00000000	      6.86090762	    -18.68932935	     14.71780042	     33.36856454	     46.75427570	      0.00000000	      5.00000014	     -8.72725785	    -16.60931836	     34.16133097	     22.77997083	     53.07121243	      0.00000000	      5.00000014
     14.60000000	      6.15323741	      2.86877558	   -183.74952084	     -0.01094571	      0.88850449	      0.81000570	      1.29537189	      2.49946752	    -14.06049124	     17.97569639	      0.31373509	     27.57977880	     10.77288906	      0.00000000	     38.57448996	     -8.57513335	     -7.23342244	     31.24226965	      0.54528047	     15.97628012	     -4.31196438	      0.00000000	     -0.00601396	      0.38748613	      1.26816518	     -0.01116853	      0.51535655	      1.34742551	     -0.00988034	      0.94213377	      1.34742551	     -0.00687336	      0.94213377	      1.10964453	     -0.00558456	      0.79016171	      1.03038421	     -0.00343638	      0.60021601	      0.95112389	     -0.04295712	      4.38332057	      7.05315429	      0.00000000	      0.00000000	      0.00000000	      0.00000000	     -0.00000000	      8.33022899	    -19.15528015	     14.00613334	     34.73369824	     46.38412869	      0.00000000	      5.00000014	     -9.94772184	    -16.83965111	     35.06778345	     23.17137665	     52.82044174	      0.00000000	      5.00000014
     14.63333333	      6.24699153	      3.14114883	   -183.98014712	     -0.04667283	      0.88449526	      0.81348057	     -0.79506772	      2.36382204	    -14.04344023	     18.46631150	      0.32229794	     28.10117272	     10.23203883	      0.00000000	     37.20760416	     -8.37306866	     -8.59776264	     22.83288588	      0.39850904	     11.23532122	     -5.04668130	      0.00000000	     -0.00440992	      0.40973643	      1.34954649	     -0.00818967	      0.54494945	      1.43389314	     -0.00724506	      0.99623315	      1.43389314	     -0.00504010	      0.99623315	      1.18085318	     -0.00409506	      0.83553452	      1.09650652	     -0.00251983	      0.63468172	      1.01215987	     -0.03149965	      4.63502040	      7.50577271	      0.00000000	      0.00000000	      0.00000000	      0.00000000	     -0.00000000	      9.32836546	    -19.67347143	     13.84818904	     36.14035178	     46.26111888	      0.00000000	      5.00000014	    -11.20683051	    -16.65331937	     35.26890077	     23.42217422	     52.67028630	      0.00000000	      5.00000014
     14.66666667	      6.23534707	      3.30010511	   -184.16721576	     -0.08362163	      0.88075901	      0.81802241	     -2.07977897	      1.80532782	    -13.76082355	     20.94126764	      0.36549407	     27.92770996	      8.43389037	      0.00000000	     35.98938080	     -7.70720979	     -8.39162571	     17.61429829	      0.30742750	      6.73287165	     -9.07360428	      0.00000000	     -0.00373265	      0.42219902	      1.40545942	     -0.00693191	      0.56152470	      1.49330064	     -0.00613237	      1.02653471	      1.49330064	     -0.00426605	      1.02653471	      1.22977699	     -0.00346614	      0.86094825	      1.14193578	     -0.00213284	      0.65398629	      1.05409457	     -0.02666196	      4.77599980	      7.81674367	      0.00000000	      0.00000000	      0.00000000	      0.00000000	     -0.00000000	      9.96450603	    -19.65399955	     13.12417643	     37.04795000	     45.71143531	      0.00000000	      5.00000014	    -12.47464990	    -16.38442177	     34.85984453	     24.04290786	     51.90737635	      0.00000000	      5.00000014
     14.70000000	      6.06915856	      3.43338395	   -183.66774182	     -0.12202212	      0.87819474	      0.82421639	     -2.73013623	      1.20738679	    -12.96580929	     24.98006587	      0.43598440	     26.17432383	      4.27152903	      0.00000000	     34.88743443	     -6.84915487	     -8.25536571	     15.41598207	      0.26905964	      3.57328386	    -12.16628727	      0.00000000	     -0.00467750	      0.43252184	      1.33003013	     -0.00868659	      0.57525405	      1.41315702	     -0.00768467	      1.05163361	      1.41315702	     -0.00534592	      1.05163361	      1.16377637	     -0.00434353	      0.88199855	      1.08064948	     -0.00267273	      0.66997634	      0.99752260	     -0.03341095	      4.89277361	      7.39722859	      0.00000000	      0.00000000	      0.00000000	      0.00000000	     -0.00000000	     10.02947970	    -19.44711003	     12.66226472	     37.75463535	     44.98864767	      0.00000000	      5.00000014	    -13.54703961	    -15.85375889	     33.87405923	     24.41073631	     50.81499162	      0.00000000	      5.00000014
     14.73333333	      5.83309058	      3.33874207	   -183.11061842	     -0.16142987	      0.87691015	      0.83115140	     -2.07747381	      0.31059311	    -11.39517764	     31.36673514	      0.54745280	     22.42674741	     -1.82673816	      0.00000000	     33.70621993	     -5.98332478	     -8.74190843	     15.41704798	      0.26907825	      1.96939059	    -13.88638105	      0.00000000	     -0.00440955	      0.41795080	      1.23225329	     -0.00818898	      0.55587457	      1.30926913	     -0.00724446	      1.01620558	      1.30926913	     -0.00503968	      1.01620558	      1.07822163	     -0.00409471	      0.85228527	      1.00120580	     -0.00251962	      0.64740579	      0.92418997	     -0.03149700	      4.72794305	      6.85342315	      0.00000000	      0.00000000	      0.00000000	      0.00000000	     -0.00000000	      9.50606823	    -18.86184578	     11.94293044	     38.09829696	     44.33737662	      0.00000000	      5.00000014	    -14.33949907	    -15.38245338	     33.08319177	     24.78602293	     49.98982021	      0.00000000	      5.00000014
